<svg width="36" height="41" viewBox="0 0 36 41" fill="none" xmlns="http://www.w3.org/2000/svg">
<path d="M0.640529 1.07379C1.10587 0.387376 1.79625 -0.0105039 2.49218 0.00327943C12.5336 0.000522756 22.575 0.00419828 32.6165 0.00144161C33.0015 -0.00407174 33.3962 -0.00223398 33.7639 0.16868C34.7153 0.562884 35.4105 1.79328 35.4542 3.11097V31.0104C35.4009 31.603 35.254 32.1884 34.9833 32.6717C34.5526 33.4675 33.8393 33.9802 33.0998 34.0124C32.6206 34.0298 32.1414 34.0142 31.6622 34.0197C31.8367 35.467 32.0209 36.9115 32.1954 38.3578C32.2778 38.9891 32.1698 39.692 31.8222 40.157C31.3929 40.758 30.6692 40.826 30.1305 40.4575C28.8564 39.579 27.5885 38.6822 26.3171 37.7973C26.1038 37.6365 25.8282 37.631 25.6163 37.7945C24.3914 38.6555 23.1629 39.5083 21.9366 40.3656C21.6056 40.6036 21.2213 40.7478 20.8439 40.6615C20.3993 40.5751 20.0032 40.1625 19.8301 39.613C19.6895 39.194 19.6798 38.7199 19.7394 38.2742C19.9139 36.8563 20.0919 35.4385 20.2643 34.0206C14.3389 34.0179 8.41413 34.0225 2.48872 34.0179C1.49572 34.0455 0.531813 33.1936 0.175193 31.9623C0.0830957 31.6637 0.0380855 31.3458 0 31.0287V2.99335C0.0630143 2.28764 0.273523 1.59756 0.640529 1.07379ZM2.10509 3.34896C2.10578 12.4782 2.10301 21.6064 2.10648 30.7347C2.09124 31.0094 2.28444 31.2511 2.4901 31.2245C8.53116 31.2245 14.5729 31.2336 20.614 31.2208C20.7372 30.1714 20.873 29.1248 20.9997 28.0763C20.5496 27.3274 20.1853 26.4857 19.945 25.5815C19.4188 23.6298 19.461 21.419 20.0662 19.5077C20.6396 17.6635 21.7233 16.1114 23.0632 15.2073C24.3512 14.3251 25.8691 14.0623 27.2859 14.4639C28.9076 14.9068 30.3715 16.241 31.2821 18.0724C32.0909 19.6749 32.4613 21.6524 32.3173 23.5701C32.2017 25.2112 31.7066 26.7945 30.9268 28.0745C31.0549 29.1248 31.1865 30.1751 31.3153 31.2254C31.8651 31.2263 32.4143 31.2281 32.9641 31.2245C33.1683 31.2502 33.3609 31.0104 33.3477 30.7374C33.3512 21.6046 33.3484 12.4717 33.3491 3.33886C33.3775 3.05124 33.1905 2.77098 32.9689 2.79763C22.9254 2.79303 12.8819 2.79763 2.83841 2.79579C2.67776 2.79947 2.51572 2.77833 2.35646 2.81693C2.18611 2.88125 2.08432 3.12108 2.10509 3.34896ZM25.6468 17.0891C23.9703 17.2307 22.4338 18.8185 21.9103 20.9347C21.5453 22.3351 21.6222 23.9321 22.1256 25.2563C22.5446 26.3883 23.2571 27.3238 24.1144 27.8687C25.0444 28.477 26.1461 28.5928 27.1411 28.2114C28.1874 27.8145 29.1064 26.8652 29.6534 25.6174C30.1492 24.5147 30.3403 23.1823 30.1956 21.9142C30.0211 20.3053 29.2871 18.8268 28.2532 17.9603C27.4853 17.3042 26.5567 16.9973 25.6468 17.0891ZM22.8756 30.1631C22.5868 32.4934 22.2987 34.8228 22.0121 37.1541C22.9386 36.5164 23.8595 35.8639 24.7847 35.2216C25.5367 34.7622 26.4508 34.7714 27.1945 35.2556C28.1023 35.886 29.0094 36.5191 29.9145 37.1559C29.6285 34.8256 29.339 32.4971 29.0516 30.1668C27.1709 31.5681 24.7542 31.5736 22.8756 30.1631Z" fill="#4D49EC"/>
<path d="M5.27617 8.05563C7.8092 8.01888 10.3443 8.05012 12.878 8.04001C18.3263 8.04001 23.7754 8.03909 29.2237 8.04001C29.6004 8.01796 29.9764 8.28076 30.1716 8.70988C30.3752 9.13901 30.3787 9.71423 30.18 10.1479C29.9868 10.5899 29.6017 10.8583 29.2188 10.8344C21.2804 10.8307 13.342 10.8353 5.40427 10.8316C4.87038 10.8353 4.38704 10.2215 4.36973 9.513C4.33095 8.81188 4.75128 8.14109 5.27617 8.05563Z" fill="#4D49EC"/>
<path d="M5.01933 15.7239C5.1599 15.643 5.31362 15.6118 5.46666 15.6164C8.83757 15.621 12.2078 15.6136 15.5787 15.62C16.2061 15.6311 16.7095 16.5169 16.5475 17.3209C16.4478 17.9476 15.9928 18.4199 15.5115 18.4089C12.1635 18.4135 8.81542 18.4107 5.46735 18.4098C5.00271 18.4346 4.54776 18.0184 4.41688 17.422C4.24446 16.7604 4.53114 15.9775 5.01933 15.7239Z" fill="#4D49EC"/>
</svg>
